# xmcd
#
# Track frame offsets:
#	150
#	12795
#	30798
#	43261
#	52138
#	63133
#	94956
#	107895
#	128409
#	136720
#	158415
#	190425
#	194984
#	221794
#	230728
#	247169
#
# Disc length: 3457 seconds
#
# Revision: 0
# Processed by: cddbd v1.5.1PL0 Copyright (c) Steve Scherf et al.
# Submitted via: dBpowerAMP V4.0
#
DISCID=e50d7f10
DTITLE=Various Artist - Chants et Musiques de l Imaginaire Creusois
DYEAR=2000
DGENRE=Chanson
TTITLE0=Les Cinq Macons
TTITLE1=S En Sont Trois Bons Macons
TTITLE2=Tres Enfants Den Bretanhat
TTITLE3=Partons Partons Chers Compagnons
TTITLE4=La Chanson du Roulier
TTITLE5=La Chanson des Macons de la Creuse
TTITLE6=Polka Piquée de Lucien Chaput
TTITLE7=La Chanson des Compagnons
TTITLE8=Les Deux Macons
TTITLE9=Lo Chamin de Sent Jaume
TTITLE10=Los Macons E Los Braiauds
TTITLE11=Les Trois Macons
TTITLE12=A La poncha D Un Suqueton
TTITLE13=Les Quatre Macons
TTITLE14=Sus Lo Pont Da Lion
TTITLE15=Les Cinq Macons
EXTD=
EXTT0=
EXTT1=
EXTT2=
EXTT3=
EXTT4=
EXTT5=
EXTT6=
EXTT7=
EXTT8=
EXTT9=
EXTT10=
EXTT11=
EXTT12=
EXTT13=
EXTT14=
EXTT15=
PLAYORDER=
